<?xml version="1.0" encoding="UTF-8"?>
<svg id="Layer_1" data-name="Layer 1" xmlns="http://www.w3.org/2000/svg" viewBox="0 0 243.46 45.3">
  <g>
    <path d="M63.16,5.73h17.15c4.24,0,7.26.34,9.19,1.2,2.71,1.25,4.46,3.89,4.46,7.15,0,3.5-1.66,6.1-6.08,7.58,4.86.91,7.26,3.84,7.26,8.35,0,3.55-1.84,6.38-4.81,7.97-2.19,1.2-5.12,1.63-10.33,1.63h-16.85V5.73ZM80.27,18.69c1.22,0,2.23-.05,2.98-.29,1.18-.43,1.66-1.44,1.66-2.78,0-1.2-.48-2.06-1.53-2.5-.74-.34-1.88-.48-2.93-.48h-8.18v6.05h8.01ZM72.26,32.66h7.88c1.49,0,2.8-.1,3.5-.34,1.58-.48,2.14-1.54,2.14-3.12,0-1.44-.53-2.64-1.88-3.17-.88-.38-2.1-.48-3.54-.48h-8.09v7.1Z"/>
    <path d="M95.63,39.62l14.26-33.89h10.85l13.56,33.89h-9.98l-2.49-6.34h-13.91l-2.49,6.34h-9.8ZM119.69,26.51c-2.62-6.86-3.63-9.79-4.68-12.96-1.14,3.31-2.1,6.05-4.9,12.96h9.58Z"/>
    <path d="M140.69,27.81c2.54,3.46,6.96,5.23,10.46,5.23s5.08-1.06,5.08-2.83-.92-2.5-5.47-3.65l-4.59-1.15c-6.87-1.73-9.45-4.99-9.45-10.22,0-6.24,5.56-10.27,14.09-10.27,5.69,0,10.76,1.34,14.96,4.99l-5.43,6.24c-2.76-2.83-6.87-3.89-9.71-3.89-3.63,0-4.68,1.06-4.68,2.74,0,1.44.96,2.02,5.21,3.07l4.64,1.15c7.53,1.87,10.15,5.04,10.15,10.27,0,6.19-5.12,10.99-15.18,10.99-6.65,0-12.56-2.4-16.23-6.77l6.17-5.91Z"/>
    <path d="M169.87,39.62V5.73h9.23v12.43h14V5.73h9.23v33.89h-9.23v-13.73h-14v13.73h-9.23Z"/>
    <path d="M225.31,40.43c-11.81,0-18.81-6.62-18.81-17.86s7.13-17.67,18.68-17.67,18.29,6.96,18.29,17.81c0,12.05-7.79,17.71-18.16,17.71ZM225.04,12.69c-5.43,0-9.19,3.31-9.19,9.79,0,6.82,3.94,10.22,9.32,10.22s8.84-2.98,8.84-10.13c0-6.72-3.63-9.89-8.97-9.89Z"/>
  </g>
  <g>
    <polygon points="35.96 0 0 0 0 45.3 12.9 45.3 35.96 0"/>
    <polygon points="39.73 0 16.68 45.3 52.61 45.3 52.61 0 39.73 0"/>
  </g>
</svg>